<svg xmlns="http://www.w3.org/2000/svg" version="1.1" xmlns:xlink="http://www.w3.org/1999/xlink" viewBox="0 0 200 200" width="200" height="200"><metadata><rdf:RDF xmlns:rdf="http://www.w3.org/1999/02/22-rdf-syntax-ns#" xmlns:dc="http://purl.org/dc/elements/1.1/"><rdf:Description><dc:creator>RealFaviconGenerator</dc:creator><dc:source>https://realfavicongenerator.net</dc:source></rdf:Description></rdf:RDF></metadata><rect width="200" height="200" fill="url('#gradient')"></rect><defs><linearGradient id="gradient" gradientTransform="rotate(90 0.5 0.5)"><stop offset="0%" stop-color="#3c4845"></stop><stop offset="100%" stop-color="#1b7974"></stop></linearGradient></defs><g><g fill="#3df383" transform="matrix(6.948261238337574,0,0,6.948261238337574,14.294211250477872,149.40639317490673)" stroke="#c2d02d" stroke-width="0"><path d="M10.46-10.42L10.46-10.42Q10.46-9.38 9.95-8.59Q9.43-7.80 8.54-7.32L8.54-7.32Q9.55-6.83 10.15-5.96Q10.74-5.10 10.74-3.92L10.74-3.92Q10.74-2.01 9.43-0.91Q8.12 0.20 5.81 0.20L5.81 0.20Q3.50 0.20 2.16-0.91Q0.82-2.02 0.82-3.92L0.82-3.92Q0.82-5.06 1.41-5.94Q1.99-6.82 3.07-7.32L3.07-7.32Q2.16-7.80 1.64-8.59Q1.12-9.38 1.12-10.42L1.12-10.42Q1.12-12.28 2.38-13.35Q3.64-14.42 5.78-14.42L5.78-14.42Q7.94-14.42 9.20-13.35Q10.46-12.28 10.46-10.42ZM7.44-4.18L7.44-4.18Q7.44-5.06 6.99-5.53Q6.53-6.01 5.79-6.01Q5.05-6.01 4.59-5.53Q4.13-5.06 4.13-4.18L4.13-4.18Q4.13-3.33 4.59-2.84Q5.06-2.34 5.81-2.34L5.81-2.34Q6.54-2.34 6.99-2.83Q7.44-3.32 7.44-4.18ZM5.78-11.88L5.78-11.88Q5.12-11.88 4.77-11.45Q4.42-11.02 4.42-10.24L4.42-10.24Q4.42-9.48 4.78-9.01Q5.13-8.54 5.81-8.54L5.81-8.54Q6.48-8.54 6.82-9.01Q7.16-9.48 7.16-10.24Q7.16-11.01 6.81-11.45Q6.46-11.88 5.78-11.88ZM18.27-4.82L16.08-4.82L16.08 0L12.66 0L12.66-14.22L18.33-14.22Q19.96-14.22 21.22-13.62Q22.47-13.02 23.16-11.91Q23.85-10.80 23.85-9.39L23.85-9.39Q23.85-7.31 22.36-6.07Q20.87-4.82 18.27-4.82L18.27-4.82ZM16.08-11.57L16.08-7.47L18.33-7.47Q19.33-7.47 19.85-7.97Q20.37-8.47 20.37-9.38L20.37-9.38Q20.37-10.37 19.83-10.97Q19.30-11.56 18.37-11.57L18.37-11.57L16.08-11.57Z"></path></g></g></svg>